HIERARCHY
ROOT Hips
{
 OFFSET 0.000000 0.000000 0.000000
 CHANNELS 6 Xposition Yposition Zposition Yrotation Xrotation Zrotation
 JOINT Chest
 {
  OFFSET 0.000000 14.374500 -0.011500
  CHANNELS 3 Yrotation Xrotation Zrotation
  JOINT Chest2
  {
   OFFSET 0.000000 9.203400 0.023400
   CHANNELS 3 Yrotation Xrotation Zrotation
   JOINT Chest3
   {
    OFFSET 0.000000 9.162700 0.000000
    CHANNELS 3 Yrotation Xrotation Zrotation
    JOINT Chest4
    {
     OFFSET 0.000000 9.153300 0.000000
     CHANNELS 3 Yrotation Xrotation Zrotation
     JOINT Neck
     {
      OFFSET 0.000000 13.353600 0.000000
      CHANNELS 3 Yrotation Xrotation Zrotation
      JOINT Head
      {
       OFFSET 0.000000 8.573800 0.049400
       CHANNELS 3 Yrotation Xrotation Zrotation
       End Site
       {
        OFFSET 0.000000 16.219200 0.026100
       }
      }
     }
     JOINT RightCollar
     {
      OFFSET -2.497100 8.876100 0.000000
      CHANNELS 3 Yrotation Xrotation Zrotation
      JOINT RightShoulder
      {
       OFFSET -12.289200 0.000000 0.000000
       CHANNELS 3 Yrotation Xrotation Zrotation
       JOINT RightElbow
       {
        OFFSET 0.000000 -28.194900 0.000000
        CHANNELS 3 Yrotation Xrotation Zrotation
        JOINT RightWrist
        {
         OFFSET 0.000000 -23.009700 0.007900
         CHANNELS 3 Yrotation Xrotation Zrotation
         End Site
         {
          OFFSET 0.000000 -17.151500 0.000000
         }
        }
       }
      }
     }
     JOINT LeftCollar
     {
      OFFSET 2.497100 8.876100 0.000000
      CHANNELS 3 Yrotation Xrotation Zrotation
      JOINT LeftShoulder
      {
       OFFSET 12.289200 0.000000 0.000000
       CHANNELS 3 Yrotation Xrotation Zrotation
       JOINT LeftElbow
       {
        OFFSET 0.000000 -28.194900 0.000000
        CHANNELS 3 Yrotation Xrotation Zrotation
        JOINT LeftWrist
        {
         OFFSET 0.000000 -23.009700 0.007900
         CHANNELS 3 Yrotation Xrotation Zrotation
         End Site
         {
          OFFSET 0.000000 -17.151500 0.000000
         }
        }
       }
      }
     }
    }
   }
  }
 }
 JOINT RightHip
 {
  OFFSET -11.777600 0.056700 0.005700
  CHANNELS 3 Yrotation Xrotation Zrotation
  JOINT RightKnee
  {
   OFFSET 0.000000 -39.966000 -0.004200
   CHANNELS 3 Yrotation Xrotation Zrotation
   JOINT RightAnkle
   {
    OFFSET 0.000000 -41.981900 0.027400
    CHANNELS 3 Yrotation Xrotation Zrotation
    JOINT RightToe
    {
     OFFSET 0.000000 -9.910600 16.950100
     CHANNELS 3 Yrotation Xrotation Zrotation
     End Site
     {
      OFFSET 0.000000 -1.461000 6.191600
     }
    }
   }
  }
 }
 JOINT LeftHip
 {
  OFFSET 11.777600 0.056700 0.005700
  CHANNELS 3 Yrotation Xrotation Zrotation
  JOINT LeftKnee
  {
   OFFSET 0.000000 -39.966000 -0.004200
   CHANNELS 3 Yrotation Xrotation Zrotation
   JOINT LeftAnkle
   {
    OFFSET 0.000000 -41.981900 0.027400
    CHANNELS 3 Yrotation Xrotation Zrotation
    JOINT LeftToe
    {
     OFFSET 0.000000 -9.910600 16.950100
     CHANNELS 3 Yrotation Xrotation Zrotation
     End Site
     {
      OFFSET 0.000000 -1.461000 6.191600
     }
    }
   }
  }
 }
}
MOTION
Frames: 5
Frame Time: 0.008333
0.000000 91.618700 0.000000 0.000000 -5.767877 0.000000 0.000000 11.653817 0.000000 0.000000 -5.885947 0.000000 0.000000 -0.000000 0.000000 0.000000 -0.000000 0.000000 0.000000 12.528835 0.000000 0.000000 0.711642 0.000000 0.000000 -0.000000 0.000000 0.000000 0.000000 -90.000000 0.000000 -2.309062 0.000000 0.000000 2.309062 0.000000 0.000000 -0.000000 0.000000 0.000000 -0.000000 90.000000 0.000000 -2.309062 0.000000 0.000000 2.309062 0.000000 0.000000 8.520406 0.000000 0.000000 1.905762 0.000000 -0.000000 -4.658285 0.000000 0.000000 -0.000000 0.000000 0.000000 8.520406 0.000000 0.000000 1.905762 0.000000 -0.000000 -4.658285 0.000000 0.000000 -0.000000 0.000000
6.927198 152.578549 21.316077 173.772352 -42.558196 -2.127221 2.340656 23.006418 1.419282 0.297799 3.373851 0.162299 0.418984 5.294991 0.283125 1.780214 19.302297 1.237410 3.339219 13.401818 1.172442 3.245199 -11.607963 0.472503 4.623443 -10.682760 -1.105693 16.920905 -26.568273 -11.259956 31.519385 -20.057963 -5.315825 15.826479 -8.798479 -19.817067 -10.276829 -13.351587 0.884166 -11.519547 -22.267563 3.721270 -26.665271 -25.613558 -1.429419 -13.153370 -14.679248 16.013822 9.629978 -35.072588 -0.536615 -78.352346 86.574786 -79.114961 0.977954 -25.762492 7.941141 0.059096 -0.148084 -0.007145 -0.009049 -31.698048 -6.588940 150.232606 67.254184 162.403429 4.058886 14.222691 -0.047552 0.463421 -12.168880 -3.937158
5.983990 145.541649 22.788718 173.884961 -42.489565 -2.238302 2.255909 22.918789 1.452701 0.282228 3.332754 0.162561 0.422405 5.294146 0.282118 1.755295 19.240423 1.231355 3.426116 13.610703 1.195498 3.332656 -11.390223 0.477209 4.595066 -10.620525 -1.106009 16.870686 -26.439599 -11.260933 31.760645 -20.337363 -5.354330 15.964460 -8.667592 -19.901461 -10.168426 -13.297073 0.900056 -11.421789 -22.060302 3.714131 -26.733056 -25.866892 -1.472804 -13.067205 -14.763982 15.784480 9.531245 -35.172123 -0.523679 -78.826632 86.591656 -79.578604 0.991022 -25.845134 7.951126 0.029683 -0.129657 0.017346 -0.109893 -31.706789 -6.571070 150.136417 67.290337 162.306248 4.106334 14.144868 0.015834 0.025984 -0.024099 0.015190
5.208673 139.751929 23.994345 173.957143 -42.459569 -2.315421 2.179182 22.839280 1.479275 0.286681 3.327895 0.159667 0.438841 5.329948 0.275551 1.713302 19.129363 1.227613 3.517414 13.827751 1.220560 3.424723 -11.163282 0.483231 4.576344 -10.525784 -1.107163 16.776113 -26.331626 -11.250504 32.031715 -20.635553 -5.402525 16.096668 -8.533129 -19.980011 -10.048760 -13.224895 0.916236 -11.300075 -21.860789 3.686416 -26.824837 -26.130761 -1.516434 -12.982304 -14.830807 15.570751 9.465597 -35.226434 -0.510673 -79.218000 86.608291 -79.959656 1.005442 -25.910838 7.956705 0.014152 -0.074628 0.008271 -0.169102 -31.650545 -6.579617 150.031078 67.320701 162.204757 4.178287 14.004700 0.078699 0.004197 -0.025820 0.002454
4.655736 135.570202 24.864541 174.002541 -42.427827 -2.390393 2.127776 22.755059 1.522977 0.287627 3.320318 0.154617 0.408255 5.230509 0.277883 1.716847 19.151370 1.215149 3.614928 14.052727 1.247836 3.523299 -10.927248 0.490362 4.550269 -10.411465 -1.106071 16.655300 -26.230777 -11.224084 32.332252 -20.944762 -5.465145 16.215439 -8.414027 -20.041671 -9.918693 -13.138214 0.930485 -11.156148 -21.664351 3.643961 -26.851463 -26.449402 -1.576312 -12.956418 -14.846507 15.345363 9.408458 -35.281932 -0.475886 -79.497944 86.618679 -80.229408 1.017872 -25.954256 7.976689 0.000721 -0.032508 0.000421 -0.221799 -31.618546 -6.545874 150.131710 67.311993 162.299718 4.265039 13.795186 0.116915 0.004801 -0.004856 0.002807
